HIERARCHY
ROOT Hips
{
 OFFSET 0.000000 0.000000 0.000000
 CHANNELS 6 Xposition Yposition Zposition Yrotation Xrotation Zrotation
 JOINT Chest
 {
  OFFSET 0.000000 9.585900 0.002600
  CHANNELS 3 Yrotation Xrotation Zrotation
  JOINT Chest2
  {
   OFFSET 0.000000 9.601200 -0.005300
   CHANNELS 3 Yrotation Xrotation Zrotation
   JOINT Chest3
   {
    OFFSET 0.000000 9.561800 0.000000
    CHANNELS 3 Yrotation Xrotation Zrotation
    JOINT Chest4
    {
     OFFSET 0.000000 9.552100 0.000000
     CHANNELS 3 Yrotation Xrotation Zrotation
     JOINT Neck
     {
      OFFSET 0.000000 14.453000 0.000000
      CHANNELS 3 Yrotation Xrotation Zrotation
      JOINT Head
      {
       OFFSET 0.000000 8.936500 -0.011300
       CHANNELS 3 Yrotation Xrotation Zrotation
       End Site
       {
        OFFSET 0.000000 17.073600 -0.006000
       }
      }
     }
     JOINT RightCollar
     {
      OFFSET -2.921100 9.558500 0.000000
      CHANNELS 3 Yrotation Xrotation Zrotation
      JOINT RightShoulder
      {
       OFFSET -13.519700 0.000000 0.000000
       CHANNELS 3 Yrotation Xrotation Zrotation
       JOINT RightElbow
       {
        OFFSET 0.000000 -29.696600 0.000000
        CHANNELS 3 Yrotation Xrotation Zrotation
        JOINT RightWrist
        {
         OFFSET 0.000000 -24.004700 0.000000
         CHANNELS 3 Yrotation Xrotation Zrotation
         End Site
         {
          OFFSET 0.000000 -17.728500 0.000000
         }
        }
       }
      }
     }
     JOINT LeftCollar
     {
      OFFSET 2.921100 9.558500 0.000000
      CHANNELS 3 Yrotation Xrotation Zrotation
      JOINT LeftShoulder
      {
       OFFSET 13.519700 0.000000 0.000000
       CHANNELS 3 Yrotation Xrotation Zrotation
       JOINT LeftElbow
       {
        OFFSET 0.000000 -29.696600 0.000000
        CHANNELS 3 Yrotation Xrotation Zrotation
        JOINT LeftWrist
        {
         OFFSET 0.000000 -24.004700 0.000000
         CHANNELS 3 Yrotation Xrotation Zrotation
         End Site
         {
          OFFSET 0.000000 -17.728500 0.000000
         }
        }
       }
      }
     }
    }
   }
  }
 }
 JOINT RightHip
 {
  OFFSET -7.771700 -0.012900 -0.001300
  CHANNELS 3 Yrotation Xrotation Zrotation
  JOINT RightKnee
  {
   OFFSET 0.000000 -40.869800 0.001200
   CHANNELS 3 Yrotation Xrotation Zrotation
   JOINT RightAnkle
   {
    OFFSET 0.000000 -39.717900 0.002100
    CHANNELS 3 Yrotation Xrotation Zrotation
    JOINT RightToe
    {
     OFFSET 0.000000 -4.965400 11.033500
     CHANNELS 3 Yrotation Xrotation Zrotation
     End Site
     {
      OFFSET 0.000000 -1.423100 5.872300
     }
    }
   }
  }
 }
 JOINT LeftHip
 {
  OFFSET 7.771700 -0.012900 -0.001300
  CHANNELS 3 Yrotation Xrotation Zrotation
  JOINT LeftKnee
  {
   OFFSET 0.000000 -40.869800 0.001200
   CHANNELS 3 Yrotation Xrotation Zrotation
   JOINT LeftAnkle
   {
    OFFSET 0.000000 -39.717900 0.002100
    CHANNELS 3 Yrotation Xrotation Zrotation
    JOINT LeftToe
    {
     OFFSET 0.000000 -4.965400 11.033500
     CHANNELS 3 Yrotation Xrotation Zrotation
     End Site
     {
      OFFSET 0.000000 -1.423100 5.872300
     }
    }
   }
  }
 }
}
MOTION
Frames: 16
Frame Time: 0.008333
-223.405390 57.359730 135.865471 178.735757 -33.175393 -1.378549 -0.051263 17.891163 2.115341 -0.100794 1.952014 0.204539 -0.164431 3.205877 0.351934 -0.631822 15.452551 1.654027 0.616152 22.468021 -3.264941 1.982904 6.018376 -6.056037 2.462347 -2.429659 -0.899799 9.315414 -14.367530 -16.739980 129.826723 -77.319585 -91.950108 13.769366 -19.540850 -50.122481 -6.617400 -3.338128 -3.119326 -0.053544 -12.820106 2.800190 -118.577621 -67.762557 84.553536 -13.554190 -12.600290 26.293856 6.779992 -42.730115 -6.893165 -7.566265 68.453666 -8.503293 4.672772 23.942778 2.639006 -1.176682 -16.391989 6.025015 -8.635693 -40.666911 2.476831 29.364887 70.697129 30.709092 -15.085217 2.462997 -4.981821 0.483519 0.543405 0.208385
-223.403393 57.357046 135.870619 178.757390 -33.199332 -1.379417 -0.073835 17.894635 2.110238 -0.103534 1.931707 0.213279 -0.165590 3.227275 0.345382 -0.635898 15.463507 1.648361 0.637976 22.411573 -3.234175 2.019821 5.930660 -6.018360 2.454446 -2.440835 -0.898760 9.262772 -14.284449 -16.779556 130.337449 -77.293018 -92.436388 13.786930 -19.450388 -50.103468 -6.603436 -3.330460 -3.119649 -0.041090 -12.779102 2.751656 -118.612447 -67.726638 84.570669 -13.524956 -12.525888 26.146310 6.779875 -42.709450 -6.914086 -7.577993 68.452158 -8.508819 4.668894 23.943888 2.631227 -1.164643 -16.386344 6.029990 -8.659322 -40.644055 2.486669 29.339100 70.701291 30.663611 -15.077850 2.479683 -4.975504 0.482972 0.544175 0.209029
-223.401595 57.354570 135.875822 178.784308 -33.215003 -1.380628 -0.102193 17.890385 2.100815 -0.104404 1.932128 0.213640 -0.166932 3.228091 0.346762 -0.639164 15.473782 1.645107 0.655937 22.353200 -3.206862 2.050912 5.839904 -5.985087 2.456446 -2.435278 -0.902280 9.193271 -14.213067 -16.823397 130.926244 -77.248568 -92.996674 13.785300 -19.348335 -50.071444 -6.593635 -3.318840 -3.123419 -0.019432 -12.741805 2.709706 -118.576947 -67.742879 84.503424 -13.548296 -12.481659 26.018897 6.771352 -42.695425 -6.935862 -7.583891 68.449157 -8.511126 4.664771 23.943839 2.614554 -1.156346 -16.379361 6.042357 -8.685549 -40.628488 2.492328 29.334024 70.695468 30.639490 -15.081252 2.498953 -4.971178 0.479821 0.537855 0.206786
-223.398787 57.353398 135.879471 178.804261 -33.235064 -1.383510 -0.124222 17.891189 2.095020 -0.103316 1.941853 0.212486 -0.172488 3.199913 0.355181 -0.643678 15.493919 1.640889 0.670862 22.302652 -3.188151 2.076657 5.745635 -5.956677 2.462795 -2.421003 -0.910851 9.121306 -14.137308 -16.869780 131.452172 -77.215908 -93.491273 13.779552 -19.304286 -50.056222 -6.580669 -3.297336 -3.135743 0.040697 -12.670168 2.634226 -118.639131 -67.724146 84.494961 -13.584664 -12.436551 25.899402 6.767940 -42.675416 -6.950673 -7.589543 68.445477 -8.511399 4.659913 23.941140 2.597882 -1.153111 -16.370543 6.057361 -8.711988 -40.607518 2.501637 29.321755 70.696423 30.611606 -15.068898 2.514444 -4.967362 0.466194 0.527385 0.202150
-223.396552 57.352854 135.882491 178.824721 -33.253274 -1.383854 -0.146394 17.900286 2.084286 -0.103758 1.941449 0.213174 -0.175430 3.191832 0.356149 -0.647160 15.492887 1.646048 0.679675 22.252378 -3.175149 2.096671 5.648090 -5.933321 2.459034 -2.412844 -0.909534 9.062679 -14.049746 -16.925148 131.945391 -77.184226 -93.958304 13.776687 -19.266165 -50.040100 -6.568995 -3.275352 -3.146490 0.076512 -12.621426 2.576828 -118.638702 -67.723589 84.445241 -13.622536 -12.397396 25.786877 6.768219 -42.656950 -6.968809 -7.599841 68.442955 -8.517834 4.652553 23.938950 2.590202 -1.144351 -16.363680 6.063959 -8.738374 -40.589765 2.506276 29.304820 70.699573 30.580530 -15.059674 2.533087 -4.961719 0.449294 0.516955 0.195525
-223.393856 57.352716 135.885276 178.842368 -33.268255 -1.387018 -0.164714 17.906596 2.077761 -0.106038 1.933115 0.214369 -0.175391 3.195155 0.355351 -0.663179 15.475917 1.653303 0.693455 22.248964 -3.179299 2.111092 5.513589 -5.908550 2.469180 -2.380940 -0.917278 8.998086 -13.973114 -16.973757 132.450773 -77.159506 -94.433551 13.799752 -19.111998 -49.986016 -6.548292 -3.240657 -3.158154 0.088933 -12.605133 2.549018 -118.519618 -67.794667 84.281643 -13.704796 -12.377880 25.698211 6.762373 -42.640463 -6.981860 -7.566864 68.438729 -8.479689 4.628300 23.938834 2.573701 -1.132969 -16.356746 6.071732 -8.767227 -40.575904 2.513755 29.294406 70.704158 30.556012 -15.034397 2.556141 -4.952068 0.430283 0.502951 0.186221
-223.392561 57.352635 135.888231 178.855807 -33.277851 -1.381935 -0.187916 17.880820 2.063442 -0.103064 1.948410 0.213703 -0.173133 3.210706 0.354845 -0.665885 15.473855 1.654637 0.698848 22.171051 -3.162342 2.120685 5.428717 -5.899216 2.461003 -2.372715 -0.915995 8.972553 -13.935757 -16.998469 132.686839 -77.142905 -94.655454 13.814659 -19.007060 -49.940313 -6.544328 -3.229512 -3.156463 0.101923 -12.588515 2.523103 -118.534913 -67.782111 84.281882 -13.686611 -12.332461 25.555770 6.763373 -42.629477 -6.999099 -7.556479 68.434533 -8.471736 4.616018 23.933537 2.567195 -1.125026 -16.346036 6.077632 -8.777593 -40.568094 2.505452 29.273903 70.708021 30.530246 -15.012736 2.578840 -4.933438 0.405676 0.488894 0.168241
-223.393284 57.351348 135.893236 178.907571 -33.268704 -1.389092 -0.242664 17.860086 2.041235 -0.103473 1.946685 0.213336 -0.173843 3.212497 0.355156 -0.665221 15.481995 1.654008 0.701438 22.094413 -3.148985 2.126737 5.338566 -5.894502 2.450287 -2.365083 -0.916212 8.890541 -13.844377 -17.045355 133.193527 -77.084130 -95.131139 13.801193 -18.946853 -49.892086 -6.541130 -3.223637 -3.157670 0.113786 -12.548680 2.489476 -118.492880 -67.824510 84.166379 -13.759576 -12.297487 25.488121 6.740677 -42.633536 -7.029424 -7.549329 68.427795 -8.468536 4.575288 23.915930 2.541510 -1.093054 -16.321005 6.091831 -8.833871 -40.580290 2.498097 29.276334 70.711056 30.516411 -14.954717 2.634958 -4.906772 0.357733 0.450300 0.145981
-223.391824 57.351905 135.895874 178.921081 -33.275777 -1.391546 -0.259890 17.857219 2.036254 -0.107652 1.936388 0.215761 -0.173137 3.216964 0.355900 -0.662529 15.490014 1.655075 0.696633 22.038496 -3.148074 2.128255 5.228805 -5.893359 2.437682 -2.351785 -0.923406 8.810996 -13.757559 -17.084465 133.748871 -77.041115 -95.644965 13.807266 -18.869965 -49.846200 -6.538066 -3.216301 -3.157810 0.123241 -12.511034 2.456307 -118.464017 -67.847969 84.084172 -13.800130 -12.266416 25.401953 6.735161 -42.623834 -7.033088 -7.526692 68.420190 -8.457105 4.574378 23.915162 2.547444 -1.087239 -16.315380 6.096079 -8.869478 -40.575171 2.508311 29.288012 70.713080 30.513395 -14.935573 2.657958 -4.900435 0.342879 0.431963 0.135486
-223.390876 57.353044 135.897910 178.931064 -33.285720 -1.392752 -0.271469 17.862601 2.031912 -0.108894 1.933328 0.217087 -0.175117 3.217910 0.356458 -0.673291 15.491052 1.662417 0.698296 21.981406 -3.157529 2.124776 5.115138 -5.898739 2.435284 -2.339606 -0.939697 8.789389 -13.727307 -17.096398 133.749867 -77.010746 -95.651284 13.798082 -18.832309 -49.795415 -6.523647 -3.201782 -3.156216 0.130363 -12.481452 2.417245 -118.451642 -67.861519 84.028435 -13.827839 -12.235624 25.306511 6.741502 -42.611531 -7.038146 -7.543999 68.411159 -8.476837 4.561013 23.922850 2.547993 -1.078556 -16.314824 6.101318 -8.889867 -40.566253 2.511161 29.300106 70.714120 30.517308 -14.918258 2.677051 -4.892366 0.326010 0.416152 0.125991
-223.390700 57.353390 135.901307 178.943936 -33.284569 -1.394987 -0.284884 17.856473 2.027398 -0.109043 1.934985 0.217311 -0.174977 3.219697 0.356192 -0.678423 15.492090 1.667045 0.691899 21.918043 -3.163257 2.117694 4.997532 -5.909230 2.431804 -2.335775 -0.948221 8.762262 -13.693989 -17.108085 133.917129 -76.992119 -95.810938 13.808811 -18.748947 -49.747296 -6.518108 -3.195935 -3.155475 0.128031 -12.432711 2.380854 -118.459323 -67.863632 84.000724 -13.855203 -12.202816 25.211053 6.743335 -42.610772 -7.050551 -7.545982 68.401775 -8.481907 4.570696 23.930748 2.559372 -1.071602 -16.315782 6.099290 -8.902029 -40.567272 2.508072 29.285130 70.712437 30.507837 -14.908698 2.691292 -4.897628 0.322223 0.409781 0.126818
-223.390001 57.354957 135.903008 178.955039 -33.294521 -1.402950 -0.294950 17.860136 2.030233 -0.108530 1.938984 0.216899 -0.176414 3.219568 0.358207 -0.685706 15.492978 1.665168 0.684911 21.853171 -3.171518 2.110355 4.877099 -5.924260 2.430328 -2.330558 -0.953017 8.637839 -13.561454 -17.153000 134.693063 -76.926699 -96.533627 13.824112 -18.665628 -49.699117 -6.509699 -3.188390 -3.152196 0.124871 -12.419264 2.364337 -118.418836 -67.897369 83.914871 -13.876727 -12.169147 25.120629 6.734065 -42.598792 -7.047654 -7.553023 68.390613 -8.495742 4.585312 23.943156 2.569698 -1.077005 -16.320434 6.102359 -8.927891 -40.558086 2.520980 29.295595 70.713803 30.512986 -14.909131 2.710253 -4.897262 0.315904 0.395464 0.123982
-223.390596 57.355764 135.905754 178.965513 -33.295222 -1.406283 -0.309892 17.853742 2.022459 -0.114230 1.936588 0.215250 -0.178758 3.221264 0.358167 -0.679531 15.499769 1.668343 0.675300 21.787150 -3.182103 2.102534 4.753426 -5.943292 2.423442 -2.324483 -0.958112 8.557018 -13.470716 -17.179506 135.027249 -76.846043 -96.871609 13.793899 -18.632198 -49.627611 -6.501390 -3.180734 -3.147278 0.113662 -12.354324 2.337614 -118.471342 -67.889135 83.936695 -13.914173 -12.153319 25.108491 6.740680 -42.594589 -7.060438 -7.568673 68.380833 -8.506758 4.589751 23.947175 2.570090 -1.073611 -16.317371 6.107673 -8.948586 -40.558772 2.523052 29.304169 70.712564 30.520060 -14.895828 2.731071 -4.896863 0.308844 0.383223 0.120443
-223.392454 57.356355 135.908567 178.973839 -33.293201 -1.403561 -0.326158 17.847330 2.009924 -0.109458 1.940310 0.217330 -0.182204 3.222667 0.356552 -0.676688 15.499166 1.669807 0.659843 21.721385 -3.194199 2.091190 4.625274 -5.964934 2.412314 -2.318720 -0.959942 8.492283 -13.404639 -17.202869 135.300056 -76.799261 -97.140632 13.784987 -18.593261 -49.568555 -6.501191 -3.173970 -3.142595 0.104962 -12.328978 2.324629 -118.467767 -67.905719 83.894538 -13.947545 -12.133918 25.096356 6.762660 -42.593302 -7.087449 -7.575082 68.373441 -8.500926 4.585025 23.953200 2.563947 -1.065602 -16.316355 6.115492 -8.974389 -40.559227 2.520394 29.316249 70.705509 30.527205 -14.880860 2.746502 -4.898362 0.298588 0.380451 0.117819
-223.393069 57.357027 135.911020 178.982463 -33.291448 -1.410183 -0.336516 17.843667 2.007443 -0.109778 1.941250 0.217428 -0.180234 3.225177 0.358719 -0.682472 15.500898 1.668221 0.647878 21.653942 -3.205529 2.076438 4.491859 -5.990536 2.402401 -2.317585 -0.957828 8.430561 -13.339107 -17.226831 135.596825 -76.760004 -97.425953 13.780734 -18.555456 -49.517376 -6.500319 -3.169926 -3.138330 0.094046 -12.310267 2.314550 -118.460934 -67.920526 83.850320 -13.931547 -12.097150 24.900368 6.765829 -42.592926 -7.094446 -7.561863 68.366559 -8.482401 4.572486 23.958442 2.557015 -1.057631 -16.314717 6.122129 -8.990837 -40.559305 2.524086 29.312552 70.703252 30.528599 -14.870862 2.756604 -4.898767 0.294208 0.374119 0.111495
-223.393486 57.357743 135.913030 178.995567 -33.289690 -1.421219 -0.357117 17.849006 2.004270 -0.108352 1.941892 0.218521 -0.172686 3.220413 0.360765 -0.702838 15.517567 1.673639 0.654873 21.603422 -3.222862 2.048508 4.320819 -6.023507 2.386145 -2.318222 -0.975270 8.388483 -13.290816 -17.239478 135.882099 -76.721095 -97.698732 13.776143 -18.522229 -49.471056 -6.486826 -3.182408 -3.144887 0.080694 -12.297625 2.309346 -118.460030 -67.920278 83.843636 -13.917196 -12.090270 24.757644 6.757310 -42.592692 -7.094508 -7.543949 68.361835 -8.463336 4.558848 23.958268 2.550111 -1.049779 -16.310258 6.128035 -9.018687 -40.560504 2.522308 29.284195 70.707532 30.517639 -14.835419 2.766249 -4.913622 0.290083 0.369229 0.110789
